<svg width="20" height="20" viewBox="0 0 20 20" fill="none" xmlns="http://www.w3.org/2000/svg">
<g clip-path="url(#clip0_66_223)">
<path d="M18.9 9.04285C19.1369 9.30535 19.268 9.64639 19.268 9.99999C19.268 10.3536 19.1369 10.6946 18.9 10.9571C17.4 12.5714 13.9857 15.7143 9.99999 15.7143C6.01428 15.7143 2.59999 12.5714 1.09999 10.9571C0.863075 10.6946 0.731934 10.3536 0.731934 9.99999C0.731934 9.64639 0.863075 9.30535 1.09999 9.04285C2.59999 7.42856 6.01428 4.28571 9.99999 4.28571C13.9857 4.28571 17.4 7.42856 18.9 9.04285Z" stroke="#979CA6" stroke-width="2" stroke-linecap="round" stroke-linejoin="round"/>
<path d="M10 12.8571C11.578 12.8571 12.8571 11.578 12.8571 10C12.8571 8.42204 11.578 7.14285 10 7.14285C8.42204 7.14285 7.14285 8.42204 7.14285 10C7.14285 11.578 8.42204 12.8571 10 12.8571Z" stroke="#979CA6" stroke-width="2" stroke-linecap="round" stroke-linejoin="round"/>
<path d="M1.70703 1.29297L19 19" stroke="#979CA6" stroke-width="2" stroke-linecap="round"/>
</g>
<defs>
<clipPath id="clip0_66_223">
<rect width="20" height="20" fill="white"/>
</clipPath>
</defs>
</svg>
