<svg width="20" height="20" viewBox="0 0 20 20" fill="none" xmlns="http://www.w3.org/2000/svg">
<g clip-path="url(#clip0_66_217)">
<path d="M18.9 9.04286C19.1369 9.30537 19.268 9.6464 19.268 10C19.268 10.3536 19.1369 10.6946 18.9 10.9571C17.4 12.5714 13.9857 15.7143 9.99999 15.7143C6.01428 15.7143 2.59999 12.5714 1.09999 10.9571C0.863075 10.6946 0.731934 10.3536 0.731934 10C0.731934 9.6464 0.863075 9.30537 1.09999 9.04286C2.59999 7.42858 6.01428 4.28572 9.99999 4.28572C13.9857 4.28572 17.4 7.42858 18.9 9.04286Z" stroke="white" stroke-width="2" stroke-linecap="round" stroke-linejoin="round"/>
<path d="M9.99997 12.8572C11.5779 12.8572 12.8571 11.578 12.8571 10C12.8571 8.42205 11.5779 7.14287 9.99997 7.14287C8.42201 7.14287 7.14282 8.42205 7.14282 10C7.14282 11.578 8.42201 12.8572 9.99997 12.8572Z" stroke="white" stroke-width="2" stroke-linecap="round" stroke-linejoin="round"/>
<path d="M1.70703 1.29297L19 19" stroke="white" stroke-width="2" stroke-linecap="round"/>
</g>
<defs>
<clipPath id="clip0_66_217">
<rect width="20" height="20" fill="white"/>
</clipPath>
</defs>
</svg>
