<svg width="71" height="80" viewBox="0 0 71 80" fill="none" xmlns="http://www.w3.org/2000/svg">
<g clip-path="url(#clip0_25_763)">
<path d="M35.5839 40.0755C36.6881 40.1426 37.3955 41.1572 37.706 43.1195C38.0856 46.7421 39.0776 49.8532 40.6822 52.4528C41.8208 54.1132 43.4081 55.2285 45.4439 55.7987C48.6702 56.6709 51.5083 57.434 53.9582 58.088C55.3039 58.5241 56.0027 59.2369 56.0544 60.2264C55.9681 61.3669 55.3125 62.0293 54.0876 62.2138C51.5169 62.5325 49.1015 63.0105 46.8414 63.6478C43.9257 64.6709 41.7691 66.0042 40.3716 67.6478C40.2681 67.7652 40.1732 67.8742 40.0869 67.9748C38.6722 69.7862 37.9648 71.8491 37.9648 74.1635C37.9648 75.0189 38.0597 75.9161 38.2495 76.8553C38.7153 79.0524 39.8368 80.1342 41.6138 80.1006C41.6311 80.1006 41.6483 80.1006 41.6656 80.1006C41.7863 80.0839 41.9157 80.0671 42.0538 80.0503C48.5236 79.2956 54.2774 77.3333 59.3152 74.1635C59.7983 73.8616 60.2727 73.5514 60.7386 73.2327C63.1022 71.5891 65.069 69.8365 66.639 67.9748C69.6755 64.3522 71.1938 60.3019 71.1938 55.8239C71.1938 49.0314 67.7087 43.2285 60.7386 38.4151C53.8029 33.6184 45.4181 31.2201 35.5839 31.2201C25.7671 31.2201 17.3736 33.6184 10.4035 38.4151C3.46782 43.2285 0 49.0314 0 55.8239C0 60.3019 1.50962 64.3522 4.52887 67.9748C6.09887 69.8365 8.05707 71.5891 10.4035 73.2327C10.8865 73.5514 11.3696 73.8616 11.8527 74.1635C16.8388 77.283 22.5236 79.2369 28.9071 80.0252C30.9429 80.2432 32.2024 79.1698 32.6855 76.805C32.8752 75.8994 32.9701 75.0189 32.9701 74.1635C32.9874 71.8491 32.2887 69.7862 30.8739 67.9748C30.7877 67.8574 30.6928 67.7317 30.5892 67.5975C29.1918 65.9539 27.0265 64.6289 24.0936 63.6226C21.8507 62.9685 19.4353 62.4822 16.8474 62.1635C15.6397 61.979 14.9927 61.3166 14.9064 60.1761C14.9582 59.2034 15.6483 58.4906 16.9768 58.0377C19.4267 57.4004 22.2648 56.6373 25.491 55.7484C27.5441 55.1782 29.14 54.0629 30.2787 52.4025C31.866 49.8029 32.858 46.6918 33.2548 43.0692C33.4964 41.1069 34.2727 40.109 35.5839 40.0755Z" fill="white"/>
<path d="M49.5846 13.8365C49.5846 10.0293 48.1957 6.7673 45.418 4.05031C42.6231 1.3501 39.2674 0 35.351 0C31.4174 0 28.0531 1.3501 25.2581 4.05031C22.4804 6.7673 21.0916 10.0293 21.0916 13.8365C21.0916 17.6604 22.4804 20.9224 25.2581 23.6226C28.0531 26.3228 31.4174 27.673 35.351 27.673C39.2674 27.673 42.6231 26.3228 45.418 23.6226C48.1957 20.9224 49.5846 17.6604 49.5846 13.8365Z" fill="white"/>
</g>
<defs>
<clipPath id="clip0_25_763">
<rect width="70.9091" height="80" fill="white"/>
</clipPath>
</defs>
</svg>
