<svg width="400" height="400" viewBox="0 0 400 400" fill="none" xmlns="http://www.w3.org/2000/svg">
<path d="M200.066 5.725C198.475 5.725 196.887 5.80416 195.304 5.95833C193.721 6.11666 192.146 6.35 190.587 6.65833C189.025 6.97083 187.483 7.35416 185.958 7.81666C184.437 8.27917 182.941 8.8125 181.471 9.42083C180 10.0292 178.562 10.7083 177.158 11.4583C175.754 12.2083 174.391 13.025 173.071 13.9083C171.746 14.7958 170.471 15.7417 169.237 16.75C168.008 17.7583 166.829 18.825 165.704 19.95C164.579 21.075 163.512 22.25 162.504 23.4792C161.496 24.7083 160.546 25.9875 159.662 27.3083C158.779 28.6292 157.962 29.9917 157.212 31.3958C156.462 32.8 155.783 34.2333 155.171 35.7042C154.562 37.175 154.029 38.6708 153.566 40.1917C153.104 41.7125 152.716 43.2542 152.408 44.8125C152.096 46.375 151.862 47.9458 151.708 49.5292C151.55 51.1125 151.475 52.7 151.475 54.2875C151.475 55.8792 151.55 57.4667 151.708 59.05C151.862 60.6292 152.096 62.2042 152.408 63.7625C152.716 65.3208 153.104 66.8625 153.566 68.3833C154.029 69.9083 154.562 71.4042 155.171 72.8708C155.783 74.3417 156.462 75.7792 157.212 77.1792C157.962 78.5833 158.779 79.9458 159.662 81.2667C160.546 82.5917 161.491 83.8667 162.504 85.0958C163.512 86.325 164.579 87.5042 165.704 88.6292C166.829 89.75 168.008 90.8208 169.237 91.8292C170.471 92.8375 171.746 93.7833 173.071 94.6667C174.391 95.55 175.754 96.3667 177.158 97.1167C178.562 97.8667 180 98.5458 181.471 99.1542C182.941 99.7625 184.437 100.3 185.958 100.758C187.483 101.221 189.025 101.608 190.587 101.917C192.146 102.229 193.721 102.463 195.304 102.617C196.887 102.775 198.475 102.85 200.066 102.85C201.658 102.85 203.246 102.775 204.829 102.617C206.412 102.463 207.983 102.229 209.546 101.917C211.108 101.608 212.65 101.221 214.171 100.758C215.696 100.3 217.191 99.7625 218.662 99.1542C220.133 98.5458 221.571 97.8667 222.971 97.1167C224.375 96.3667 225.737 95.55 227.062 94.6667C228.387 93.7833 229.662 92.8375 230.891 91.8292C232.125 90.8208 233.3 89.75 234.425 88.6292C235.55 87.5042 236.621 86.325 237.629 85.0958C238.637 83.8667 239.583 82.5917 240.471 81.2667C241.354 79.9458 242.171 78.5833 242.921 77.1792C243.671 75.7792 244.35 74.3417 244.958 72.8708C245.566 71.4042 246.104 69.9083 246.566 68.3833C247.029 66.8625 247.412 65.3208 247.725 63.7625C248.033 62.2042 248.266 60.6292 248.425 59.05C248.579 57.4667 248.658 55.8792 248.658 54.2875C248.658 52.7 248.579 51.1125 248.425 49.5292C248.266 47.9458 248.033 46.375 247.725 44.8125C247.412 43.2542 247.029 41.7125 246.566 40.1917C246.104 38.6708 245.566 37.175 244.958 35.7042C244.35 34.2333 243.671 32.8 242.921 31.3958C242.171 29.9917 241.354 28.6292 240.471 27.3083C239.583 25.9875 238.637 24.7083 237.629 23.4792C236.621 22.25 235.55 21.075 234.425 19.95C233.3 18.825 232.125 17.7583 230.891 16.75C229.662 15.7417 228.387 14.7958 227.062 13.9083C225.737 13.025 224.375 12.2083 222.971 11.4583C221.571 10.7083 220.133 10.0292 218.662 9.42083C217.191 8.8125 215.696 8.27917 214.171 7.81666C212.65 7.35416 211.108 6.97083 209.546 6.65833C207.983 6.35 206.412 6.11666 204.829 5.95833C203.246 5.80416 201.658 5.725 200.066 5.725ZM166.975 135.225C143.021 135.225 121.112 148.342 109.841 169.433L75.5165 233.583C69.0706 243.408 68.8081 256.096 74.979 266.213C80.5998 275.438 90.5498 280.946 101.012 280.946C102.408 280.946 103.812 280.825 105.221 280.629L135.275 276.771V299.504L84.0581 335.767C75.554 341.804 70.4873 351.617 70.4873 362.042C70.4873 379.783 84.9206 394.225 102.691 394.225H138.408C136.579 389.125 135.275 383.771 135.275 378.038C135.275 351.217 157.029 329.475 183.866 329.475C193.246 329.475 200.066 332.133 200.066 332.133L253.687 349.171L183.866 361.85C182.796 361.838 181.729 361.925 180.675 362.121C179.621 362.317 178.596 362.617 177.6 363.017C176.604 363.417 175.658 363.913 174.758 364.5C173.862 365.088 173.029 365.758 172.266 366.508C171.5 367.263 170.821 368.083 170.216 368.971C169.616 369.863 169.108 370.8 168.696 371.792C168.279 372.779 167.966 373.8 167.758 374.85C167.546 375.904 167.441 376.967 167.441 378.038C167.441 379.113 167.546 380.175 167.758 381.225C167.966 382.275 168.279 383.296 168.696 384.288C169.108 385.275 169.616 386.217 170.216 387.104C170.821 387.992 171.5 388.813 172.266 389.567C173.029 390.321 173.862 390.992 174.758 391.579C175.658 392.167 176.604 392.658 177.6 393.058C178.596 393.458 179.621 393.758 180.675 393.954C181.729 394.15 182.796 394.242 183.866 394.225H297.441C310.608 394.225 319.912 384.967 324.871 373.488C326.396 371.971 327.571 370.221 328.396 368.238C329.225 366.254 329.641 364.188 329.646 362.042C329.646 351.6 324.554 341.783 316.104 335.767C316.083 335.767 316.062 335.767 316.041 335.767L264.854 299.504V276.771L294.687 280.596C306.804 282.329 318.771 276.683 325.154 266.213C331.308 256.096 331.062 243.425 324.616 233.583L290.291 169.433C279 148.342 257.096 135.225 233.158 135.225H166.975ZM202.658 167.663C228.95 169.042 248.658 192.608 248.658 218.913V225.175C248.658 234.125 240.816 241.008 231.925 239.875C225.704 239.067 220.646 234.454 219.3 228.338L215.883 212.717C214.912 208.283 212.204 204.675 208.637 202.442C208.396 202.279 208.137 202.129 207.879 202C205.533 200.688 202.883 199.975 200.096 199.975H200.033C197.425 199.975 194.916 200.596 192.662 201.746C192.096 202.038 191.537 202.354 191.016 202.725C187.666 204.975 185.154 208.446 184.216 212.688L180.8 228.338C179.454 234.454 174.429 239.083 168.208 239.875C159.333 241.025 151.475 234.125 151.475 225.175V216.163C151.475 188.483 174.637 166.208 202.658 167.663Z" fill="#272628"/>
<mask id="mask0_148_991" style="mask-type:luminance" maskUnits="userSpaceOnUse" x="146" y="151" width="108" height="109">
<path d="M146.163 151.571H253.867V259.571H146.163V151.571Z" fill="white"/>
</mask>
<g mask="url(#mask0_148_991)">
<path d="M253.833 205.408C253.833 207.171 253.75 208.933 253.575 210.688C253.404 212.442 253.146 214.183 252.8 215.913C252.458 217.642 252.029 219.35 251.517 221.038C251.004 222.725 250.413 224.383 249.738 226.013C249.063 227.642 248.308 229.233 247.479 230.788C246.646 232.342 245.742 233.854 244.763 235.321C243.783 236.788 242.733 238.2 241.617 239.563C240.496 240.925 239.313 242.229 238.067 243.479C236.821 244.725 235.517 245.908 234.154 247.025C232.788 248.146 231.375 249.192 229.908 250.175C228.442 251.154 226.933 252.058 225.375 252.888C223.821 253.721 222.229 254.475 220.6 255.15C218.971 255.821 217.313 256.417 215.625 256.929C213.938 257.442 212.229 257.867 210.5 258.213C208.771 258.554 207.029 258.813 205.275 258.988C203.521 259.158 201.763 259.246 200 259.246C198.233 259.246 196.475 259.158 194.721 258.988C192.967 258.813 191.225 258.554 189.496 258.213C187.767 257.867 186.058 257.442 184.371 256.929C182.683 256.417 181.025 255.821 179.396 255.15C177.767 254.475 176.175 253.721 174.621 252.888C173.067 252.058 171.554 251.154 170.088 250.175C168.621 249.192 167.208 248.146 165.846 247.025C164.483 245.908 163.175 244.725 161.929 243.479C160.683 242.229 159.5 240.925 158.383 239.563C157.263 238.2 156.213 236.788 155.233 235.321C154.254 233.854 153.35 232.342 152.521 230.788C151.688 229.233 150.933 227.642 150.258 226.013C149.583 224.383 148.992 222.725 148.479 221.038C147.967 219.35 147.542 217.642 147.196 215.913C146.854 214.183 146.596 212.442 146.421 210.688C146.25 208.933 146.163 207.171 146.163 205.408C146.163 203.646 146.25 201.888 146.421 200.133C146.596 198.379 146.854 196.638 147.196 194.908C147.542 193.179 147.967 191.471 148.479 189.783C148.992 188.096 149.583 186.438 150.258 184.808C150.933 183.179 151.688 181.588 152.521 180.029C153.35 178.475 154.254 176.967 155.233 175.5C156.213 174.033 157.263 172.621 158.383 171.254C159.5 169.892 160.683 168.588 161.929 167.342C163.175 166.096 164.483 164.913 165.846 163.792C167.208 162.675 168.621 161.625 170.088 160.646C171.554 159.667 173.067 158.763 174.621 157.929C176.175 157.1 177.767 156.346 179.396 155.671C181.025 154.996 182.683 154.404 184.371 153.892C186.058 153.379 187.767 152.95 189.496 152.608C191.225 152.263 192.967 152.004 194.721 151.833C196.475 151.658 198.233 151.571 200 151.571C201.763 151.571 203.521 151.658 205.275 151.833C207.029 152.004 208.771 152.263 210.5 152.608C212.229 152.95 213.938 153.379 215.625 153.892C217.313 154.404 218.971 154.996 220.6 155.671C222.229 156.346 223.821 157.1 225.375 157.929C226.933 158.763 228.442 159.667 229.908 160.646C231.375 161.625 232.788 162.675 234.154 163.792C235.517 164.913 236.821 166.096 238.067 167.342C239.313 168.588 240.496 169.892 241.617 171.254C242.733 172.621 243.783 174.033 244.763 175.5C245.742 176.967 246.646 178.475 247.479 180.029C248.308 181.588 249.063 183.179 249.738 184.808C250.413 186.438 251.004 188.096 251.517 189.783C252.029 191.471 252.458 193.179 252.8 194.908C253.146 196.638 253.404 198.379 253.575 200.133C253.75 201.888 253.833 203.646 253.833 205.408Z" fill="#272628"/>
</g>
<mask id="mask1_148_991" style="mask-type:luminance" maskUnits="userSpaceOnUse" x="203" y="206" width="66" height="44">
<path d="M203.733 206.933H268.867V249.6H203.733V206.933Z" fill="white"/>
</mask>
<g mask="url(#mask1_148_991)">
<path d="M268.812 209.65C264.942 223.408 256.054 234.85 243.6 242.037C231.658 248.929 217.971 251.033 204.667 248.083C204.712 248.021 204.775 247.975 204.821 247.912L205.121 247.579C205.333 247.329 205.562 247.079 205.775 246.829C206.733 245.729 207.662 244.571 208.558 243.362C209.146 242.575 209.717 241.775 210.267 240.962C210.817 240.142 211.354 239.304 211.854 238.454C212.25 237.8 212.633 237.129 212.992 236.462C213.433 235.675 213.837 234.871 214.233 234.062C214.517 233.5 214.783 232.95 215.033 232.375C215.342 231.683 215.642 230.992 215.929 230.287C216.192 229.629 216.454 228.975 216.692 228.317C216.929 227.646 217.171 226.979 217.383 226.3C217.542 225.846 217.671 225.392 217.804 224.925C217.875 224.721 217.933 224.529 217.983 224.329C218.175 223.671 218.354 223.012 218.508 222.358C218.721 222.154 218.95 221.95 219.175 221.746C219.571 221.387 219.967 221.054 220.371 220.721C220.767 220.387 221.146 220.062 221.554 219.754C222.304 219.167 223.083 218.583 223.871 218.021C224.396 217.662 224.921 217.292 225.458 216.946C226.342 216.362 227.237 215.812 228.158 215.275C232.767 212.612 237.7 210.654 242.833 209.433C251.362 207.404 260.296 207.487 268.812 209.65Z" fill="#F6F4F0"/>
</g>
<path d="M240.279 205.146C239.646 205.313 239.013 205.492 238.392 205.683C238.046 205.779 237.713 205.888 237.379 206.008C236.971 206.138 236.554 206.271 236.146 206.413C236.133 206.413 236.125 206.413 236.113 206.425C235.896 206.496 235.671 206.567 235.454 206.65C235.358 206.675 235.275 206.713 235.179 206.758C234.704 206.925 234.225 207.104 233.758 207.296C232.325 207.846 230.904 208.479 229.521 209.158L228.658 209.592C228.575 209.625 228.492 209.663 228.421 209.708C228.108 209.863 227.8 210.021 227.5 210.188C226.917 210.496 226.342 210.808 225.771 211.142C225.254 211.442 224.754 211.738 224.254 212.05C223.25 212.658 222.258 213.317 221.292 213.996C220.813 214.329 220.333 214.679 219.858 215.025C219.871 214.942 219.879 214.858 219.879 214.775C219.942 214.308 219.988 213.829 220.038 213.35C220.058 213.067 220.083 212.767 220.108 212.467C220.121 212.288 220.133 212.108 220.142 211.929C220.154 211.8 220.167 211.654 220.167 211.513C220.204 211.046 220.229 210.579 220.238 210.117C220.263 209.4 220.275 208.696 220.275 207.979C220.275 207.321 220.263 206.65 220.238 205.996C220.229 205.542 220.204 205.088 220.179 204.646C220.154 204.192 220.133 203.738 220.083 203.296C220.05 202.771 220.013 202.246 219.954 201.721C219.954 201.683 219.942 201.646 219.942 201.613C219.929 201.467 219.904 201.325 219.892 201.183C219.879 201.063 219.871 200.942 219.846 200.813V200.775C219.833 200.692 219.821 200.621 219.808 200.538C219.788 200.3 219.75 200.046 219.713 199.808C219.654 199.308 219.571 198.792 219.488 198.292C219.475 198.208 219.463 198.125 219.438 198.042C219.379 197.633 219.308 197.217 219.225 196.813C219.225 196.788 219.213 196.75 219.2 196.729C219.154 196.429 219.079 196.108 219.021 195.808C219.021 195.758 219.008 195.725 218.996 195.675C218.983 195.629 218.975 195.571 218.963 195.521C218.879 195.117 218.783 194.708 218.688 194.317C218.675 194.267 218.663 194.208 218.65 194.158C218.521 193.6 218.375 193.05 218.233 192.5C218.233 192.475 218.221 192.442 218.208 192.417C218.425 192.213 218.65 192.021 218.913 191.783C219.521 191.271 220.133 190.767 220.742 190.279C222.008 189.275 223.296 188.354 224.563 187.521C225.325 187.017 226.104 186.529 226.892 186.075C227.679 185.608 228.467 185.167 229.279 184.75C230.092 184.317 230.904 183.925 231.717 183.554C232.133 183.363 232.554 183.171 232.971 182.992C233.796 182.633 234.642 182.3 235.479 181.979C236.913 181.454 238.346 180.988 239.754 180.579C241.784 188.642 241.975 197.063 240.279 205.146Z" fill="#F6F4F0"/>
<mask id="mask2_148_991" style="mask-type:luminance" maskUnits="userSpaceOnUse" x="184" y="169" width="33" height="78">
<path d="M184.533 169.908H216.533V246.4H184.533V169.908Z" fill="white"/>
</mask>
<g mask="url(#mask2_148_991)">
<path d="M215.5 207.979C215.5 212.217 215.008 216.433 214.042 220.517V220.567C214.029 220.579 214.029 220.587 214.029 220.6C214.017 220.625 214.017 220.662 214.004 220.683C213.933 220.996 213.863 221.317 213.779 221.642C213.696 221.95 213.613 222.262 213.529 222.583C212.225 227.279 210.279 231.779 207.758 235.996C207.292 236.771 206.804 237.55 206.3 238.3C205.788 239.054 205.263 239.792 204.725 240.521C203.9 241.621 203.042 242.696 202.171 243.7C201.979 243.925 201.775 244.154 201.571 244.379L201.275 244.712C200.879 245.146 200.488 245.562 200.067 245.979C199.983 245.908 199.913 245.85 199.854 245.775C199.779 245.704 199.721 245.633 199.65 245.562C199.208 245.096 198.767 244.629 198.338 244.142C198.096 243.879 197.858 243.604 197.642 243.329C197.117 242.733 196.617 242.108 196.125 241.479C195.842 241.108 195.554 240.737 195.279 240.354C194.979 239.962 194.692 239.554 194.421 239.162C194.121 238.754 193.846 238.35 193.583 237.929C193.333 237.55 193.079 237.167 192.842 236.783C192.496 236.221 192.163 235.662 191.829 235.087C191.65 234.779 191.471 234.454 191.292 234.146C191.05 233.704 190.825 233.271 190.596 232.829C189.929 231.517 189.308 230.179 188.733 228.817C188.363 227.908 188.004 226.992 187.683 226.071C187.204 224.721 186.8 223.383 186.454 222.083C186.383 221.821 186.308 221.558 186.25 221.296L186.204 221.104C186.167 220.983 186.142 220.862 186.096 220.683C186.096 220.65 186.083 220.6 186.071 220.554C186.071 220.542 186.071 220.529 186.058 220.517C186.058 220.504 186.058 220.483 186.046 220.471C186.046 220.433 186.033 220.408 186.025 220.375C185.796 219.396 185.592 218.417 185.425 217.437C185.129 215.729 184.9 214.008 184.771 212.287C184.696 211.392 184.65 210.508 184.625 209.625C184.613 209.075 184.6 208.525 184.6 207.979C184.6 202.629 185.367 197.371 186.883 192.346C186.896 192.308 186.908 192.271 186.908 192.25C188.196 187.95 190.038 183.817 192.354 179.946C192.817 179.171 193.296 178.408 193.808 177.642C194.071 177.25 194.346 176.867 194.633 176.458L195.35 175.479C195.35 175.471 195.363 175.458 195.363 175.446C195.375 175.433 195.375 175.433 195.388 175.421C195.65 175.062 195.925 174.704 196.208 174.346L197.058 173.296C198.013 172.137 199.017 171.025 200.054 169.962C201.083 171.012 202.088 172.137 203.029 173.271C203.329 173.629 203.617 173.987 203.9 174.346C204.258 174.812 204.617 175.279 204.942 175.721L205.179 176.042C205.563 176.579 205.933 177.117 206.292 177.629C206.792 178.396 207.292 179.171 207.758 179.946C210.075 183.817 211.904 187.95 213.192 192.237C213.192 192.271 213.204 192.308 213.217 192.346C214.733 197.371 215.5 202.637 215.5 207.979Z" fill="#F6F4F0"/>
</g>
<path d="M181.891 192.417C181.854 192.583 181.808 192.763 181.758 192.929C181.7 193.146 181.641 193.371 181.591 193.588C181.483 193.979 181.387 194.375 181.304 194.767C181.258 194.996 181.2 195.221 181.162 195.45C181.021 196.058 180.9 196.667 180.791 197.288C180.662 197.971 180.554 198.663 180.458 199.342C180.446 199.367 180.446 199.392 180.446 199.413C180.35 200.058 180.266 200.692 180.196 201.325C180.183 201.421 180.171 201.517 180.158 201.613C180.1 202.175 180.05 202.733 180.016 203.296C179.966 203.738 179.946 204.192 179.921 204.646C179.896 205.1 179.871 205.542 179.862 205.996C179.837 206.65 179.825 207.321 179.825 207.979C179.825 208.658 179.837 209.329 179.862 210.008C179.871 210.508 179.896 211.013 179.933 211.513C179.991 212.633 180.1 213.746 180.229 214.858C180.229 214.917 180.229 214.975 180.241 215.038C179.775 214.688 179.3 214.342 178.808 213.996C178.521 213.792 178.237 213.592 177.937 213.4C176.766 212.6 175.575 211.846 174.341 211.142C173.771 210.808 173.196 210.496 172.612 210.188C172.275 209.996 171.929 209.817 171.583 209.663C170.737 209.208 169.875 208.8 169.004 208.421C168.608 208.229 168.216 208.063 167.821 207.896C167.525 207.763 167.212 207.629 166.912 207.525C166.662 207.417 166.412 207.308 166.15 207.225C165.754 207.058 165.35 206.904 164.954 206.771C164.729 206.675 164.491 206.592 164.25 206.521C163.821 206.367 163.391 206.208 162.962 206.079C162.746 206.008 162.533 205.933 162.316 205.875C161.816 205.708 161.3 205.567 160.787 205.421C160.691 205.388 160.583 205.35 160.479 205.338C160.262 205.267 160.033 205.208 159.821 205.146C158.508 198.875 158.316 192.475 159.258 186.075C159.308 185.763 159.341 185.467 159.412 185.121C159.654 183.613 159.975 182.096 160.358 180.592C161.804 181 163.237 181.463 164.608 181.979C165.458 182.3 166.304 182.633 167.129 182.992L168.371 183.542C169.208 183.925 170.021 184.329 170.821 184.75C171.633 185.167 172.433 185.608 173.208 186.063C173.996 186.542 174.783 187.029 175.537 187.521C176.816 188.354 178.091 189.275 179.358 190.279C179.979 190.767 180.6 191.283 181.246 191.829C181.462 192.033 181.675 192.225 181.891 192.417Z" fill="#F6F4F0"/>
<mask id="mask3_148_991" style="mask-type:luminance" maskUnits="userSpaceOnUse" x="131" y="206" width="66" height="44">
<path d="M131.267 206.933H196.267V249.6H131.267V206.933Z" fill="white"/>
</mask>
<g mask="url(#mask3_148_991)">
<path d="M195.458 248.083C182.141 251.033 168.441 248.929 156.5 242.038C144.046 234.85 135.171 223.408 131.3 209.65C139.766 207.5 148.641 207.404 157.108 209.388C157.171 209.4 157.241 209.421 157.3 209.433C162.425 210.654 167.358 212.625 171.954 215.275C172.875 215.813 173.771 216.363 174.654 216.946C175.096 217.233 175.537 217.533 175.966 217.829C176.396 218.142 176.825 218.45 177.258 218.763C177.65 219.05 178.033 219.346 178.416 219.646C179.504 220.504 180.566 221.4 181.579 222.333V222.346L181.616 222.454C181.687 222.75 181.758 223.038 181.829 223.325C182.2 224.733 182.654 226.192 183.166 227.658C183.504 228.625 183.875 229.583 184.266 230.525C184.446 230.967 184.637 231.396 184.829 231.829C184.971 232.175 185.129 232.508 185.296 232.842C185.571 233.463 185.866 234.071 186.179 234.683C186.371 235.063 186.558 235.433 186.762 235.817C186.929 236.138 187.108 236.463 187.287 236.771C187.491 237.142 187.696 237.5 187.921 237.871C188.854 239.471 189.858 241.025 190.941 242.529C191.241 242.946 191.554 243.354 191.862 243.771C192.196 244.213 192.546 244.667 192.9 245.096C193.237 245.525 193.596 245.954 193.954 246.375C194.312 246.792 194.683 247.221 195.05 247.629C195.183 247.783 195.312 247.925 195.458 248.083Z" fill="#F6F4F0"/>
</g>
</svg>
