<svg width="350" height="350" viewBox="0 0 350 350" fill="none" xmlns="http://www.w3.org/2000/svg">
<path d="M350 175C350 271.65 271.65 350 175 350C78.3502 350 0 271.65 0 175C0 78.3502 78.3502 9.53674e-06 175 9.53674e-06C271.65 9.53674e-06 350 78.3502 350 175ZM43.75 175C43.75 247.487 102.513 306.25 175 306.25C247.487 306.25 306.25 247.487 306.25 175C306.25 102.513 247.487 43.75 175 43.75C102.513 43.75 43.75 102.513 43.75 175Z" fill="#4DA1A9"/>
<path d="M175 21.875C175 9.79375 184.832 -0.140938 196.819 1.36535C223.699 4.74306 249.533 14.331 272.225 29.4928C301.003 48.722 323.434 76.0533 336.679 108.03C349.924 140.007 353.39 175.194 346.637 209.141C339.885 243.087 323.218 274.269 298.744 298.744C274.269 323.218 243.087 339.885 209.141 346.637C175.194 353.39 140.007 349.924 108.03 336.679C76.0533 323.434 48.7221 301.003 29.4928 272.225C14.331 249.533 4.74308 223.699 1.36534 196.819C-0.140925 184.832 9.79376 175 21.875 175C33.9562 175 43.5643 184.86 45.5687 196.774C48.6323 214.985 55.5192 232.428 65.8696 247.919C80.2915 269.503 100.79 286.325 124.773 296.259C148.756 306.193 175.146 308.792 200.606 303.728C226.066 298.664 249.452 286.163 267.808 267.808C286.163 249.452 298.664 226.066 303.728 200.606C308.792 175.146 306.193 148.756 296.259 124.773C286.325 100.79 269.503 80.2915 247.919 65.8696C232.428 55.5192 214.985 48.6323 196.774 45.5687C184.86 43.5644 175 33.9562 175 21.875Z" fill="#79D7BE"/>
</svg>
