<svg width="30" height="30" viewBox="0 0 30 30" fill="none" xmlns="http://www.w3.org/2000/svg">
<g clip-path="url(#clip0_88_371)">
<path d="M28.9287 22.5C28.9287 26.0571 22.693 28.9286 15.0001 28.9286C7.30725 28.9286 1.07153 26.0571 1.07153 22.5" stroke="white" stroke-width="3" stroke-linecap="round" stroke-linejoin="round"/>
<path d="M20.3574 11.7857C20.3574 14.7429 16.0716 19.2857 15.0002 19.2857C13.9288 19.2857 9.64307 14.7429 9.64307 11.7857C9.64307 7.5 15.0002 1.07143 15.0002 1.07143C15.0002 1.07143 20.3574 7.5 20.3574 11.7857Z" stroke="white" stroke-width="3" stroke-linecap="round" stroke-linejoin="round"/>
<path d="M10.4574 8.33572C7.77807 7.3498 4.98419 6.70894 2.14307 6.42857C2.14307 6.42857 2.89307 14.7643 5.93592 17.7857C8.07878 19.9286 14.2716 20.0571 15.0216 19.3071" stroke="white" stroke-width="3" stroke-linecap="round" stroke-linejoin="round"/>
<path d="M19.543 8.33572C22.2223 7.3498 25.0162 6.70894 27.8573 6.42857C27.8573 6.42857 27.1073 14.7643 24.0645 17.7857C21.9216 19.9286 15.7288 20.0571 14.9788 19.3071" stroke="white" stroke-width="3" stroke-linecap="round" stroke-linejoin="round"/>
</g>
<defs>
<clipPath id="clip0_88_371">
<rect width="30" height="30" fill="white"/>
</clipPath>
</defs>
</svg>
