<svg width="30" height="30" viewBox="0 0 30 30" fill="none" xmlns="http://www.w3.org/2000/svg">
<path fill-rule="evenodd" clip-rule="evenodd" d="M4 8.375C4 5.09348 4.03514 4 8.375 4C12.7149 4 12.75 5.09348 12.75 8.375C12.75 11.6565 12.7638 12.75 8.375 12.75C3.98616 12.75 4 11.6565 4 8.375Z" stroke="#2E5077" stroke-width="3" stroke-linecap="round" stroke-linejoin="round"/>
<path fill-rule="evenodd" clip-rule="evenodd" d="M17.75 8.375C17.75 5.09348 17.7851 4 22.125 4C26.4649 4 26.5 5.09348 26.5 8.375C26.5 11.6565 26.5138 12.75 22.125 12.75C17.7362 12.75 17.75 11.6565 17.75 8.375Z" stroke="#2E5077" stroke-width="3" stroke-linecap="round" stroke-linejoin="round"/>
<path fill-rule="evenodd" clip-rule="evenodd" d="M4 22.125C4 18.8435 4.03514 17.75 8.375 17.75C12.7149 17.75 12.75 18.8435 12.75 22.125C12.75 25.4065 12.7638 26.5 8.375 26.5C3.98616 26.5 4 25.4065 4 22.125Z" stroke="#2E5077" stroke-width="3" stroke-linecap="round" stroke-linejoin="round"/>
<path fill-rule="evenodd" clip-rule="evenodd" d="M17.75 22.125C17.75 18.8435 17.7851 17.75 22.125 17.75C26.4649 17.75 26.5 18.8435 26.5 22.125C26.5 25.4065 26.5138 26.5 22.125 26.5C17.7362 26.5 17.75 25.4065 17.75 22.125Z" stroke="#2E5077" stroke-width="3" stroke-linecap="round" stroke-linejoin="round"/>
</svg>
