<svg width="30" height="30" viewBox="0 0 30 30" fill="none" xmlns="http://www.w3.org/2000/svg">
<g clip-path="url(#clip0_88_354)">
<path d="M17.1428 26.7858C17.1417 27.1511 17.0472 27.51 16.8684 27.8285C16.6895 28.147 16.4322 28.4145 16.1209 28.6056C15.8096 28.7967 15.4546 28.905 15.0896 28.9203C14.7247 28.9356 14.3619 28.8573 14.0356 28.693L5.46422 24.4072C5.11083 24.2292 4.81365 23.9567 4.60562 23.6201C4.3976 23.2835 4.28684 22.8958 4.28564 22.5001V1.07153L15.9642 6.9001C16.3209 7.07981 16.6202 7.3556 16.8284 7.69637C17.0367 8.03714 17.1456 8.42932 17.1428 8.82868V26.7858Z" stroke="#2E5077" stroke-width="3" stroke-linecap="round" stroke-linejoin="round"/>
<path d="M4.28564 1.07153H23.5714C24.1397 1.07153 24.6847 1.2973 25.0866 1.69916C25.4885 2.10103 25.7142 2.64607 25.7142 3.21439V22.5001C25.7142 23.0684 25.4885 23.6135 25.0866 24.0153C24.6847 24.4172 24.1397 24.643 23.5714 24.643H17.1428" stroke="#2E5077" stroke-width="3" stroke-linecap="round" stroke-linejoin="round"/>
</g>
<defs>
<clipPath id="clip0_88_354">
<rect width="30" height="30" fill="white"/>
</clipPath>
</defs>
</svg>
