<svg width="30" height="30" viewBox="0 0 30 30" fill="none" xmlns="http://www.w3.org/2000/svg">
<g clip-path="url(#clip0_88_367)">
<path d="M5.35725 1.07154C3.77707 1.06922 2.2514 1.64898 1.07153 2.70011V12.3001C2.2514 13.3512 3.77707 13.931 5.35725 13.9287C5.71364 13.9613 6.07228 13.9613 6.42868 13.9287V26.3358C6.42868 27.0462 6.71088 27.7275 7.21321 28.2299C7.71554 28.7322 8.39685 29.0144 9.10725 29.0144C9.81765 29.0144 10.499 28.7322 11.0013 28.2299C11.5036 27.7275 11.7858 27.0462 11.7858 26.3358V7.50011C11.7858 5.79515 11.1085 4.16002 9.90293 2.95442C8.69734 1.74883 7.06221 1.07154 5.35725 1.07154V1.07154Z" stroke="#2E5077" stroke-width="3" stroke-linecap="round" stroke-linejoin="round"/>
<path d="M24.6429 1.07154C26.2231 1.06922 27.7488 1.64898 28.9286 2.70011V12.3001C27.7488 13.3512 26.2231 13.931 24.6429 13.9287C24.2865 13.9613 23.9279 13.9613 23.5715 13.9287V26.3358C23.5715 27.0462 23.2893 27.7275 22.787 28.2299C22.2846 28.7322 21.6033 29.0144 20.8929 29.0144C20.1825 29.0144 19.5012 28.7322 18.9989 28.2299C18.4966 27.7275 18.2144 27.0462 18.2144 26.3358V7.50011C18.2144 5.79515 18.8916 4.16002 20.0972 2.95442C21.3028 1.74883 22.938 1.07154 24.6429 1.07154V1.07154Z" stroke="#2E5077" stroke-width="3" stroke-linecap="round" stroke-linejoin="round"/>
</g>
<defs>
<clipPath id="clip0_88_367">
<rect width="30" height="30" fill="white"/>
</clipPath>
</defs>
</svg>
