<svg width="30" height="30" viewBox="0 0 30 30" fill="none" xmlns="http://www.w3.org/2000/svg">
<g clip-path="url(#clip0_88_367)">
<path d="M5.35725 1.07142C3.77707 1.0691 2.2514 1.64886 1.07153 2.69999V12.3C2.2514 13.3511 3.77707 13.9309 5.35725 13.9286C5.71364 13.9612 6.07228 13.9612 6.42868 13.9286V26.3357C6.42868 27.0461 6.71088 27.7274 7.21321 28.2297C7.71554 28.7321 8.39685 29.0143 9.10725 29.0143C9.81765 29.0143 10.499 28.7321 11.0013 28.2297C11.5036 27.7274 11.7858 27.0461 11.7858 26.3357V7.49999C11.7858 5.79503 11.1085 4.15989 9.90293 2.9543C8.69734 1.74871 7.06221 1.07142 5.35725 1.07142V1.07142Z" stroke="white" stroke-width="3" stroke-linecap="round" stroke-linejoin="round"/>
<path d="M24.6429 1.07142C26.2231 1.0691 27.7488 1.64886 28.9286 2.69999V12.3C27.7488 13.3511 26.2231 13.9309 24.6429 13.9286C24.2865 13.9612 23.9279 13.9612 23.5715 13.9286V26.3357C23.5715 27.0461 23.2893 27.7274 22.787 28.2297C22.2846 28.7321 21.6033 29.0143 20.8929 29.0143C20.1825 29.0143 19.5012 28.7321 18.9989 28.2297C18.4966 27.7274 18.2144 27.0461 18.2144 26.3357V7.49999C18.2144 5.79503 18.8916 4.15989 20.0972 2.9543C21.3028 1.74871 22.938 1.07142 24.6429 1.07142V1.07142Z" stroke="white" stroke-width="3" stroke-linecap="round" stroke-linejoin="round"/>
</g>
<defs>
<clipPath id="clip0_88_367">
<rect width="30" height="30" fill="white"/>
</clipPath>
</defs>
</svg>
