<svg width="125" height="45" viewBox="0 0 125 45" fill="none" xmlns="http://www.w3.org/2000/svg">
<g clip-path="url(#clip0_32_770)">
<path d="M20.016 22.5425C20.6371 22.5802 21.035 23.1509 21.2096 24.2547C21.4231 26.2925 21.9812 28.0425 22.8837 29.5047C23.5242 30.4387 24.4171 31.066 25.5622 31.3868C27.377 31.8774 28.9734 32.3066 30.3515 32.6745C31.1085 32.9198 31.5015 33.3208 31.5306 33.8774C31.4821 34.5189 31.1133 34.8915 30.4243 34.9953C28.9783 35.1745 27.6196 35.4434 26.3483 35.8019C24.7082 36.3774 23.4951 37.1274 22.709 38.0519C22.6508 38.1179 22.5974 38.1792 22.5489 38.2359C21.7531 39.2547 21.3552 40.4151 21.3552 41.717C21.3552 42.1981 21.4086 42.7028 21.5153 43.2311C21.7774 44.467 22.4082 45.0755 23.4078 45.0566C23.4175 45.0566 23.4272 45.0566 23.4369 45.0566C23.5048 45.0472 23.5776 45.0377 23.6552 45.0283C27.2945 44.6038 30.531 43.5 33.3648 41.717C33.6365 41.5472 33.9034 41.3726 34.1654 41.1934C35.495 40.2689 36.6013 39.283 37.4844 38.2359C39.1925 36.1981 40.0465 33.9198 40.0465 31.4009C40.0465 27.5802 38.0861 24.316 34.1654 21.6085C30.2641 18.9104 25.5477 17.5613 20.016 17.5613C14.494 17.5613 9.77264 18.9104 5.85194 21.6085C1.95065 24.316 0 27.5802 0 31.4009C0 33.9198 0.849162 36.1981 2.54749 38.2359C3.43062 39.283 4.5321 40.2689 5.85194 41.1934C6.12367 41.3726 6.3954 41.5472 6.66714 41.717C9.4718 43.4717 12.6695 44.5708 16.2602 45.0142C17.4054 45.1368 18.1138 44.533 18.3856 43.2028C18.4923 42.6934 18.5457 42.1981 18.5457 41.717C18.5554 40.4151 18.1624 39.2547 17.3666 38.2359C17.3181 38.1698 17.2647 38.0991 17.2065 38.0236C16.4204 37.0991 15.2024 36.3538 13.5526 35.7877C12.291 35.4198 10.9324 35.1462 9.47665 34.967C8.79732 34.8632 8.43339 34.4906 8.38487 33.8491C8.41398 33.3019 8.80217 32.9009 9.54944 32.6462C10.9275 32.2877 12.5239 31.8585 14.3387 31.3585C15.4936 31.0377 16.3913 30.4104 17.0318 29.4764C17.9246 28.0142 18.4826 26.2642 18.7058 24.2264C18.8417 23.1226 19.2784 22.5613 20.016 22.5425Z" fill="url(#paint0_radial_32_770)"/>
<path d="M27.8913 7.78302C27.8913 5.64151 27.1101 3.8066 25.5477 2.2783C23.9755 0.759434 22.0879 0 19.885 0C17.6723 0 15.7799 0.759434 14.2077 2.2783C12.6452 3.8066 11.864 5.64151 11.864 7.78302C11.864 9.93396 12.6452 11.7689 14.2077 13.2877C15.7799 14.8066 17.6723 15.566 19.885 15.566C22.0879 15.566 23.9755 14.8066 25.5477 13.2877C27.1101 11.7689 27.8913 9.93396 27.8913 7.78302Z" fill="#2E5077"/>
</g>
<path d="M50.32 20.34C48.5867 20.34 47.2133 19.9133 46.2 19.06C45.1867 18.1933 44.68 17 44.68 15.48H48.66C48.66 15.96 48.8133 16.3267 49.12 16.58C49.44 16.8333 49.8333 16.96 50.3 16.96C50.74 16.96 51.1133 16.8533 51.42 16.64C51.7267 16.4267 51.88 16.14 51.88 15.78C51.88 15.38 51.6867 15.0867 51.3 14.9C50.9267 14.7133 50.3133 14.52 49.46 14.32C48.5133 14.08 47.7333 13.8333 47.12 13.58C46.5067 13.3267 45.9733 12.9133 45.52 12.34C45.08 11.7667 44.86 10.9867 44.86 10C44.86 8.62667 45.3267 7.56 46.26 6.8C47.2067 6.04 48.5133 5.66 50.18 5.66C51.8467 5.66 53.14 6.06667 54.06 6.88C54.9933 7.69333 55.46 8.81333 55.46 10.24H51.6C51.6 9.81333 51.46 9.49333 51.18 9.28C50.9133 9.05333 50.5667 8.94 50.14 8.94C49.7667 8.94 49.4467 9.02667 49.18 9.2C48.9133 9.36 48.78 9.59333 48.78 9.9C48.78 10.2467 48.9667 10.5133 49.34 10.7C49.7133 10.8733 50.32 11.0667 51.16 11.28C52.1333 11.5333 52.9333 11.7933 53.56 12.06C54.2 12.3267 54.7533 12.7533 55.22 13.34C55.6867 13.9267 55.92 14.7133 55.92 15.7C55.92 17.18 55.4067 18.3267 54.38 19.14C53.3533 19.94 52 20.34 50.32 20.34ZM61.4381 7.84H57.7781V4.7H61.4381V7.84ZM61.4781 20H57.7581V9.2H61.4781V20ZM67.5328 20H63.8128V5.3H67.5328V20ZM80.9875 14.5C80.9875 14.8467 80.9608 15.1733 80.9075 15.48H72.8875C73.0075 16.0933 73.2542 16.56 73.6275 16.88C74.0142 17.2 74.5008 17.36 75.0875 17.36C75.5275 17.36 75.9142 17.2733 76.2475 17.1C76.5942 16.9133 76.8608 16.66 77.0475 16.34H80.7475C80.3742 17.58 79.6742 18.56 78.6475 19.28C77.6342 20 76.4475 20.36 75.0875 20.36C73.9808 20.36 72.9808 20.1133 72.0875 19.62C71.1942 19.1133 70.4942 18.42 69.9875 17.54C69.4808 16.66 69.2275 15.68 69.2275 14.6C69.2275 13.5067 69.4808 12.5267 69.9875 11.66C70.4942 10.78 71.1942 10.0933 72.0875 9.6C72.9808 9.09333 73.9808 8.84 75.0875 8.84C76.2208 8.84 77.2342 9.09333 78.1275 9.6C79.0342 10.0933 79.7342 10.7733 80.2275 11.64C80.7342 12.4933 80.9875 13.4467 80.9875 14.5ZM75.0875 11.76C74.5408 11.76 74.0808 11.9067 73.7075 12.2C73.3475 12.48 73.0942 12.8867 72.9475 13.42H77.3275C77.1542 12.8733 76.8742 12.46 76.4875 12.18C76.1142 11.9 75.6475 11.76 75.0875 11.76ZM89.2 8.88C90.0267 8.88 90.7533 9.06667 91.38 9.44C92.0067 9.81333 92.4867 10.3467 92.82 11.04C93.1667 11.72 93.34 12.5133 93.34 13.42V20H89.62V13.92C89.62 12.6667 89.1533 12.04 88.22 12.04C87.6467 12.04 87.2 12.2333 86.88 12.62C86.56 13.0067 86.4 13.5467 86.4 14.24V20H82.68V9.2H85.28L85.8 10.32C86.2 9.86667 86.6933 9.51333 87.28 9.26C87.8667 9.00667 88.5067 8.88 89.2 8.88ZM102.773 16.74V20H100.213C99.0125 20 98.0725 19.66 97.3925 18.98C96.7125 18.2867 96.3725 17.34 96.3725 16.14V12.06H94.3925V11.2L99.2325 6.04H99.9925V9.2H102.713V12.06H100.093V15.5C100.093 15.8867 100.199 16.1933 100.413 16.42C100.639 16.6333 100.946 16.74 101.333 16.74H102.773Z" fill="#2E5077"/>
<path d="M79.66 38.9H75.56L73.98 36.96C73.14 37.2267 72.26 37.36 71.34 37.36C69.86 37.36 68.5333 37.0467 67.36 36.42C66.1867 35.78 65.2667 34.9067 64.6 33.8C63.9467 32.68 63.62 31.4133 63.62 30C63.62 28.5867 63.9467 27.3267 64.6 26.22C65.2667 25.1 66.1867 24.2267 67.36 23.6C68.5333 22.96 69.86 22.64 71.34 22.64C72.82 22.64 74.14 22.9533 75.3 23.58C76.4733 24.2067 77.3867 25.08 78.04 26.2C78.6933 27.32 79.02 28.5867 79.02 30C79.02 31.08 78.82 32.0867 78.42 33.02C78.0333 33.94 77.48 34.7267 76.76 35.38L79.66 38.9ZM67.64 30C67.64 30.72 67.8 31.3667 68.12 31.94C68.44 32.5133 68.88 32.96 69.44 33.28C70 33.6 70.6333 33.76 71.34 33.76C72.0333 33.76 72.66 33.6 73.22 33.28C73.78 32.96 74.2133 32.5133 74.52 31.94C74.84 31.3667 75 30.72 75 30C75 29.28 74.84 28.6333 74.52 28.06C74.2133 27.4867 73.78 27.04 73.22 26.72C72.66 26.4 72.0333 26.24 71.34 26.24C70.6333 26.24 70 26.4 69.44 26.72C68.88 27.04 68.44 27.4867 68.12 28.06C67.8 28.6333 67.64 29.28 67.64 30ZM86.0202 37.36C84.9668 37.36 84.0335 37.1533 83.2202 36.74C82.4202 36.3267 81.8002 35.7467 81.3602 35C80.9202 34.24 80.7002 33.36 80.7002 32.36V26.2H84.4202V32.2C84.4202 32.7733 84.5602 33.22 84.8402 33.54C85.1202 33.86 85.5135 34.02 86.0202 34.02C86.5268 34.02 86.9202 33.86 87.2002 33.54C87.4802 33.22 87.6202 32.7733 87.6202 32.2V26.2H91.3402V32.36C91.3402 33.36 91.1135 34.24 90.6602 35C90.2202 35.7467 89.6002 36.3267 88.8002 36.74C88.0002 37.1533 87.0735 37.36 86.0202 37.36ZM104.655 31.5C104.655 31.8467 104.629 32.1733 104.575 32.48H96.5555C96.6755 33.0933 96.9221 33.56 97.2955 33.88C97.6821 34.2 98.1688 34.36 98.7555 34.36C99.1955 34.36 99.5821 34.2733 99.9155 34.1C100.262 33.9133 100.529 33.66 100.715 33.34H104.415C104.042 34.58 103.342 35.56 102.315 36.28C101.302 37 100.115 37.36 98.7555 37.36C97.6488 37.36 96.6488 37.1133 95.7555 36.62C94.8621 36.1133 94.1621 35.42 93.6555 34.54C93.1488 33.66 92.8955 32.68 92.8955 31.6C92.8955 30.5067 93.1488 29.5267 93.6555 28.66C94.1621 27.78 94.8621 27.0933 95.7555 26.6C96.6488 26.0933 97.6488 25.84 98.7555 25.84C99.8888 25.84 100.902 26.0933 101.795 26.6C102.702 27.0933 103.402 27.7733 103.895 28.64C104.402 29.4933 104.655 30.4467 104.655 31.5ZM98.7555 28.76C98.2088 28.76 97.7488 28.9067 97.3755 29.2C97.0155 29.48 96.7621 29.8867 96.6155 30.42H100.995C100.822 29.8733 100.542 29.46 100.155 29.18C99.7821 28.9 99.3155 28.76 98.7555 28.76ZM110.508 37.36C109.055 37.36 107.901 37.0067 107.048 36.3C106.195 35.5933 105.755 34.6467 105.728 33.46H109.328C109.328 33.8333 109.441 34.12 109.668 34.32C109.895 34.52 110.195 34.62 110.568 34.62C110.861 34.62 111.108 34.5467 111.308 34.4C111.521 34.2533 111.628 34.0467 111.628 33.78C111.628 33.5 111.475 33.2933 111.168 33.16C110.875 33.0267 110.415 32.9067 109.788 32.8C109.068 32.6933 108.428 32.54 107.868 32.34C107.321 32.1267 106.855 31.7867 106.468 31.32C106.081 30.8533 105.888 30.2133 105.888 29.4C105.888 28.6933 106.075 28.0733 106.448 27.54C106.835 26.9933 107.375 26.5733 108.068 26.28C108.775 25.9867 109.581 25.84 110.488 25.84C111.861 25.84 112.961 26.1733 113.788 26.84C114.615 27.5067 115.041 28.3933 115.068 29.5H111.588C111.588 29.1667 111.481 28.9133 111.268 28.74C111.068 28.5667 110.795 28.48 110.448 28.48C110.141 28.48 109.895 28.5533 109.708 28.7C109.535 28.8333 109.448 29.0267 109.448 29.28C109.448 29.56 109.595 29.76 109.888 29.88C110.181 29.9867 110.655 30.1 111.308 30.22C112.121 30.3667 112.788 30.5267 113.308 30.7C113.841 30.8733 114.301 31.1933 114.688 31.66C115.088 32.1267 115.288 32.78 115.288 33.62C115.288 34.3667 115.088 35.0267 114.688 35.6C114.288 36.16 113.728 36.5933 113.008 36.9C112.288 37.2067 111.455 37.36 110.508 37.36ZM124.214 33.74V37H121.654C120.454 37 119.514 36.66 118.834 35.98C118.154 35.2867 117.814 34.34 117.814 33.14V29.06H115.834V28.2L120.674 23.04H121.434V26.2H124.154V29.06H121.534V32.5C121.534 32.8867 121.641 33.1933 121.854 33.42C122.081 33.6333 122.387 33.74 122.774 33.74H124.214Z" fill="#2E5077"/>
<defs>
<radialGradient id="paint0_radial_32_770" cx="0" cy="0" r="1" gradientUnits="userSpaceOnUse" gradientTransform="translate(20.016 31.3019) scale(20.2307 19.6663)">
<stop stop-color="#4DA1A9"/>
<stop offset="1" stop-color="#2E5077"/>
</radialGradient>
<clipPath id="clip0_32_770">
<rect width="39.8864" height="45" fill="white"/>
</clipPath>
</defs>
</svg>
