<svg width="703" height="506" viewBox="0 0 703 506" fill="none" xmlns="http://www.w3.org/2000/svg">
<path d="M668.067 123.97L654.39 100.773H632.514L596.436 121.079L586.07 113.521L564.195 129.194V98.44L552.715 76.9515V63.02L544.516 29.3743H514.471L500.795 53.1629L459.797 92.0658L451.071 64.7615L437.395 16.0343H414.993L400.759 29.9658L381.637 53.7543L361.989 23.5586L334.637 0.328613L313.875 17.1843L305.675 43.8643L291.473 78.1343L275.073 39.8229L234.632 7.88576H221.513L208.394 37.49H195.274L175.533 67.39L182.619 133.663L132.462 96.2386L99.3544 69.0658L78.0044 90.5872L102.139 157.517L79.7372 149.927L70.5474 167.67L19.7099 149.303L0.309326 175.03L15.2233 201.119L43.2567 238.313L104.15 297.423L159.784 350.914L192.768 375.196L59.8415 389.259L24.3821 394.187L7.73538 416.07L16.9561 436.08L37.6562 447.941L207.589 465.717L288.812 446.693L316.938 480.437L353.325 505.901L383.277 478.63L407.876 436.803H473.473L583.317 426.354L686.075 406.049L703.031 383.41L688.271 359.063L589.35 348.614L517.72 333.5L558.718 285.89L622.149 210.483L668.067 123.97Z" fill="#FF0000"/>
</svg>
