<svg width="29" height="32" viewBox="0 0 29 32" fill="none" xmlns="http://www.w3.org/2000/svg">
<path d="M0 29.1394C0.00935677 29.653 0.167344 30.1543 0.456794 30.5889C0.746243 31.0236 1.15608 31.3748 1.64177 31.6045C2.12676 31.8638 2.67436 32 3.23142 32C3.78848 32 4.33608 31.8638 4.82107 31.6045L27.3628 18.4159C27.8533 18.1923 28.2671 17.8424 28.5567 17.4063C28.8464 16.9703 29 16.4657 29 15.9507C29 15.4357 28.8464 14.9311 28.5567 14.4951C28.2671 14.059 27.8533 13.709 27.3628 13.4855L4.82107 0.395455C4.33608 0.136225 3.78848 0 3.23142 0C2.67436 0 2.12676 0.136225 1.64177 0.395455C1.15608 0.625182 0.746243 0.97644 0.456794 1.41106C0.167344 1.84568 0.00935677 2.34703 0 2.86063V29.1394Z" fill="#F6F4F0"/>
</svg>
