<svg width="20" height="24" viewBox="0 0 20 24" fill="none" xmlns="http://www.w3.org/2000/svg">
<path d="M0 21.1079C0.00641159 21.4799 0.11467 21.8431 0.313011 22.1579C0.511353 22.4728 0.792189 22.7272 1.125 22.8936C1.45733 23.0814 1.83257 23.1801 2.21429 23.1801C2.596 23.1801 2.97124 23.0814 3.30357 22.8936L18.75 13.34C19.0861 13.1781 19.3697 12.9246 19.5681 12.6087C19.7666 12.2929 19.8718 11.9274 19.8718 11.5543C19.8718 11.1813 19.7666 10.8158 19.5681 10.4999C19.3697 10.184 19.0861 9.93052 18.75 9.7686L3.30357 0.286458C2.97124 0.0986785 2.596 0 2.21429 0C1.83257 0 1.45733 0.0986785 1.125 0.286458C0.792189 0.452867 0.511353 0.707311 0.313011 1.02214C0.11467 1.33697 0.00641159 1.70013 0 2.07217V21.1079Z" fill="#F6F4F0"/>
</svg>
