<svg width="25" height="25" viewBox="0 0 25 25" fill="none" xmlns="http://www.w3.org/2000/svg">
<g clip-path="url(#clip0_119_273)">
<path d="M24.1069 0.892858V24.1071" stroke="white" stroke-width="3" stroke-linecap="round" stroke-linejoin="round"/>
<path d="M0.892655 20.8214C0.891778 21.1427 0.977571 21.4582 1.14099 21.7347C1.30442 22.0113 1.53941 22.2387 1.82123 22.3929C2.09269 22.5496 2.40062 22.6321 2.71408 22.6321C3.02754 22.6321 3.33548 22.5496 3.60694 22.3929L16.4462 14C16.6968 13.8381 16.9029 13.616 17.0456 13.354C17.1883 13.092 17.263 12.7984 17.263 12.5C17.263 12.2016 17.1883 11.908 17.0456 11.646C16.9029 11.384 16.6968 11.1619 16.4462 11L3.57123 2.67857C3.29976 2.52184 2.99183 2.43933 2.67837 2.43933C2.36491 2.43933 2.05697 2.52184 1.78551 2.67857C1.5037 2.83276 1.2687 3.06012 1.10528 3.33668C0.941857 3.61324 0.856063 3.92876 0.85694 4.25L0.892655 20.8214Z" stroke="white" stroke-width="3" stroke-linecap="round" stroke-linejoin="round"/>
</g>
<defs>
<clipPath id="clip0_119_273">
<rect width="25" height="25" fill="white"/>
</clipPath>
</defs>
</svg>
