<svg width="25" height="25" viewBox="0 0 25 25" fill="none" xmlns="http://www.w3.org/2000/svg">
<g clip-path="url(#clip0_119_278)">
<path d="M0.893066 0.892858V24.1071" stroke="#F6F4F0" stroke-width="3" stroke-linecap="round" stroke-linejoin="round"/>
<path d="M24.1073 20.8214C24.1082 21.1427 24.0224 21.4582 23.859 21.7347C23.6956 22.0113 23.4606 22.2387 23.1788 22.3929C22.9073 22.5496 22.5994 22.6321 22.2859 22.6321C21.9725 22.6321 21.6645 22.5496 21.3931 22.3929L8.55377 14C8.30315 13.8381 8.09709 13.616 7.95441 13.354C7.81172 13.092 7.73696 12.7984 7.73696 12.5C7.73696 12.2016 7.81172 11.908 7.95441 11.646C8.09709 11.384 8.30315 11.1619 8.55377 11L21.4288 2.67857C21.7002 2.52184 22.0082 2.43933 22.3216 2.43933C22.6351 2.43933 22.943 2.52184 23.2145 2.67857C23.4963 2.83276 23.7313 3.06012 23.8947 3.33668C24.0581 3.61324 24.1439 3.92876 24.1431 4.25L24.1073 20.8214Z" stroke="#F6F4F0" stroke-width="3" stroke-linecap="round" stroke-linejoin="round"/>
</g>
<defs>
<clipPath id="clip0_119_278">
<rect width="25" height="25" fill="white" transform="matrix(-1 0 0 1 25 0)"/>
</clipPath>
</defs>
</svg>
