<svg width="30" height="30" viewBox="0 0 30 30" fill="none" xmlns="http://www.w3.org/2000/svg">
<g clip-path="url(#clip0_88_354)">
<path d="M17.1428 26.7857C17.1417 27.151 17.0472 27.5099 16.8684 27.8284C16.6895 28.1469 16.4322 28.4144 16.1209 28.6055C15.8096 28.7966 15.4546 28.9049 15.0896 28.9202C14.7247 28.9355 14.3619 28.8572 14.0356 28.6929L5.46422 24.4071C5.11083 24.2291 4.81365 23.9566 4.60562 23.62C4.3976 23.2834 4.28684 22.8957 4.28564 22.5V1.07143L15.9642 6.9C16.3209 7.0797 16.6202 7.35549 16.8284 7.69626C17.0367 8.03703 17.1456 8.42922 17.1428 8.82857V26.7857Z" stroke="white" stroke-width="3" stroke-linecap="round" stroke-linejoin="round"/>
<path d="M4.28564 1.07143H23.5714C24.1397 1.07143 24.6847 1.29719 25.0866 1.69905C25.4885 2.10092 25.7142 2.64596 25.7142 3.21428V22.5C25.7142 23.0683 25.4885 23.6134 25.0866 24.0152C24.6847 24.4171 24.1397 24.6429 23.5714 24.6429H17.1428" stroke="white" stroke-width="3" stroke-linecap="round" stroke-linejoin="round"/>
</g>
<defs>
<clipPath id="clip0_88_354">
<rect width="30" height="30" fill="white"/>
</clipPath>
</defs>
</svg>
