<svg width="45" height="50" viewBox="0 0 45 50" fill="none" xmlns="http://www.w3.org/2000/svg">
<g clip-path="url(#clip0_88_336)">
<path d="M22.24 25.0472C22.9301 25.0891 23.3722 25.7233 23.5663 26.9497C23.8035 29.2138 24.4235 31.1583 25.4263 32.783C26.138 33.8208 27.1301 34.5178 28.4025 34.8742C30.4189 35.4193 32.1927 35.8962 33.7239 36.305C34.565 36.5776 35.0017 37.0231 35.034 37.6415C34.9801 38.3543 34.5703 38.7683 33.8047 38.8836C32.1981 39.0828 30.6885 39.3815 29.2759 39.7799C27.4536 40.4193 26.1057 41.2526 25.2323 42.2799C25.1676 42.3532 25.1082 42.4214 25.0543 42.4843C24.1701 43.6164 23.728 44.9057 23.728 46.3522C23.728 46.8868 23.7873 47.4476 23.9059 48.0346C24.1971 49.4078 24.898 50.0839 26.0086 50.0629C26.0194 50.0629 26.0302 50.0629 26.041 50.0629C26.1165 50.0524 26.1973 50.0419 26.2836 50.0314C30.3272 49.5597 33.9234 48.3333 37.072 46.3522C37.3739 46.1635 37.6705 45.9696 37.9616 45.7704C39.4389 44.7432 40.6681 43.6478 41.6494 42.4843C43.5472 40.2201 44.4961 37.6887 44.4961 34.8899C44.4961 30.6446 42.3179 27.0178 37.9616 24.0094C33.6268 21.0115 28.3863 19.5126 22.24 19.5126C16.1044 19.5126 10.8585 21.0115 6.50216 24.0094C2.16739 27.0178 0 30.6446 0 34.8899C0 37.6887 0.943514 40.2201 2.83054 42.4843C3.8118 43.6478 5.03567 44.7432 6.50216 45.7704C6.80408 45.9696 7.10601 46.1635 7.40793 46.3522C10.5242 48.3019 14.0772 49.5231 18.0669 50.0157C19.3393 50.152 20.1265 49.4811 20.4284 48.0031C20.547 47.4371 20.6063 46.8868 20.6063 46.3522C20.6171 44.9057 20.1804 43.6164 19.2962 42.4843C19.2423 42.4109 19.183 42.3323 19.1183 42.2484C18.2449 41.2212 16.8916 40.3931 15.0585 39.7641C13.6567 39.3553 12.1471 39.0514 10.5296 38.8522C9.7748 38.7369 9.37044 38.3228 9.31652 37.6101C9.34887 37.0021 9.78019 36.5566 10.6105 36.2736C12.1417 35.8753 13.9155 35.3983 15.9319 34.8428C17.2151 34.4864 18.2125 33.7893 18.9242 32.7516C19.9162 31.1268 20.5363 29.1824 20.7843 26.9182C20.9352 25.6918 21.4205 25.0681 22.24 25.0472Z" fill="#2E5077"/>
<path d="M30.9903 8.6478C30.9903 6.26834 30.1222 4.22956 28.3862 2.53145C26.6393 0.843815 24.542 0 22.0943 0C19.6358 0 17.5331 0.843815 15.7862 2.53145C14.0502 4.22956 13.1821 6.26834 13.1821 8.6478C13.1821 11.0377 14.0502 13.0765 15.7862 14.7641C17.5331 16.4518 19.6358 17.2956 22.0943 17.2956C24.542 17.2956 26.6393 16.4518 28.3862 14.7641C30.1222 13.0765 30.9903 11.0377 30.9903 8.6478Z" fill="#2E5077"/>
</g>
<defs>
<clipPath id="clip0_88_336">
<rect width="44.3182" height="50" fill="white"/>
</clipPath>
</defs>
</svg>
