<svg width="30" height="30" viewBox="0 0 30 30" fill="none" xmlns="http://www.w3.org/2000/svg">
<g clip-path="url(#clip0_88_371)">
<path d="M28.9287 22.5C28.9287 26.0571 22.693 28.9286 15.0001 28.9286C7.30725 28.9286 1.07153 26.0571 1.07153 22.5" stroke="#2E5077" stroke-width="3" stroke-linecap="round" stroke-linejoin="round"/>
<path d="M20.3574 11.7858C20.3574 14.743 16.0716 19.2858 15.0002 19.2858C13.9288 19.2858 9.64307 14.743 9.64307 11.7858C9.64307 7.5001 15.0002 1.07153 15.0002 1.07153C15.0002 1.07153 20.3574 7.5001 20.3574 11.7858Z" stroke="#2E5077" stroke-width="3" stroke-linecap="round" stroke-linejoin="round"/>
<path d="M10.4574 8.33585C7.77807 7.34994 4.98419 6.70908 2.14307 6.42871C2.14307 6.42871 2.89307 14.7644 5.93592 17.7859C8.07878 19.9287 14.2716 20.0573 15.0216 19.3073" stroke="#2E5077" stroke-width="3" stroke-linecap="round" stroke-linejoin="round"/>
<path d="M19.543 8.33585C22.2223 7.34994 25.0162 6.70908 27.8573 6.42871C27.8573 6.42871 27.1073 14.7644 24.0645 17.7859C21.9216 19.9287 15.7288 20.0573 14.9788 19.3073" stroke="#2E5077" stroke-width="3" stroke-linecap="round" stroke-linejoin="round"/>
</g>
<defs>
<clipPath id="clip0_88_371">
<rect width="30" height="30" fill="white"/>
</clipPath>
</defs>
</svg>
