<svg width="20" height="26" viewBox="0 0 20 26" fill="none" xmlns="http://www.w3.org/2000/svg">
<path d="M17.0714 9.92857H2.78571C1.79949 9.92857 1 10.7281 1 11.7143V22.4286C1 23.4148 1.79949 24.2143 2.78571 24.2143H17.0714C18.0577 24.2143 18.8571 23.4148 18.8571 22.4286V11.7143C18.8571 10.7281 18.0577 9.92857 17.0714 9.92857Z" stroke="#272628" stroke-width="2" stroke-linecap="round" stroke-linejoin="round"/>
<path d="M16.1787 9.92857V7.25C16.1787 5.5924 15.5202 4.00269 14.3481 2.83058C13.176 1.65848 11.5863 1 9.92871 1C8.27111 1 6.6814 1.65848 5.50929 2.83058C4.33719 4.00269 3.67871 5.5924 3.67871 7.25V9.92857" stroke="#272628" stroke-width="2" stroke-linecap="round" stroke-linejoin="round"/>
<path d="M9.92899 17.9643C10.4221 17.9643 10.8218 17.5645 10.8218 17.0714C10.8218 16.5783 10.4221 16.1786 9.92899 16.1786C9.43588 16.1786 9.03613 16.5783 9.03613 17.0714C9.03613 17.5645 9.43588 17.9643 9.92899 17.9643Z" stroke="#272628" stroke-width="2" stroke-linecap="round" stroke-linejoin="round"/>
</svg>
